# xmcd
#
# Track frame offsets:
#	150
#	17784
#	29401
#	45651
#	61228
#	74272
#	90269
#	106821
#	118528
#	143105
#	155677
#	170762
#	189309
#	205919
#	221328
#	234345
#	253454
#	266518
#	282737
#	295959
#	311513
#
# Disc length: 4355 seconds
#
# Revision: 1
# Processed by: cddbd v1.5.2PL0 Copyright (c) Steve Scherf et al.
# Submitted via: audiograbber 1.83.01
#
DISCID=38110115
DTITLE=Diverse kunstnere Country - Best Of Country CD 2
DYEAR=1900
DGENRE=
TTITLE0=Meet Me In Montana
TTITLE1=Crystal Gayle - Don´t Make My Brown Eyes Blue
TTITLE2=Billie Jo Spears - If I Could Write A Song As Beatiful Like You
TTITLE3=Billy Crash Craddock - I Never Fall In Love Again
TTITLE4=Bobbie Centry - Lay Back In The Arms Of Someone
TTITLE5=Juicy Newton - Puttin In Overtime At Home
TTITLE6=Charlie Rich - Bop
TTITLE7=Dan Seals - She Having My Baby
TTITLE8=Paul Anka and Odia Coates - Hopeless Yours
TTITLE9=Lee Greenwood - Mammas Don´t Let Your Babies Grow Up To Be Cowboys
TTITLE10=Ed Bruce - The Sweetest Thing
TTITLE11=Juicy Newton - I Won´t Take Less Than Your Love
TTITLE12=Tanya Tucker/paul Overstreet  - A Mind Off Her Own
TTITLE13=John Berry - A Mind Off Her Own
TTITLE14=Tanya Tucker - San Antonio Stroll
TTITLE15=Dan Seals - Addicted
TTITLE16=Barbara Mandrell - I Wish That I Could Fall In Love Today
TTITLE17=Lacy J. Dalton - Black Coffee
TTITLE18=The Rance - Walkin´ In The Country
TTITLE19=Eddie Rabbitt - Someone Could Loose A Heart Tonigth
TTITLE20=Tamra Rosanes and Dennis Locorriere - Let It Be Me
EXTD=
EXTT0=
EXTT1=
EXTT2=
EXTT3=
EXTT4=
EXTT5=
EXTT6=
EXTT7=
EXTT8=
EXTT9=
EXTT10=
EXTT11=
EXTT12=
EXTT13=
EXTT14=
EXTT15=
EXTT16=
EXTT17=
EXTT18=
EXTT19=
EXTT20=
PLAYORDER=
